<?xml version="1.0" standalone="no"?>
<!DOCTYPE svg PUBLIC "-//W3C//DTD SVG 20010904//EN"
 "http://www.w3.org/TR/2001/REC-SVG-20010904/DTD/svg10.dtd">
<svg version="1.0" xmlns="http://www.w3.org/2000/svg"
 width="1090.000000pt" height="1090.000000pt" viewBox="0 0 1090.000000 1090.000000"
 preserveAspectRatio="xMidYMid meet">
<metadata>
Created by potrace 1.14, written by Peter Selinger 2001-2017
</metadata>
<g transform="translate(0.000000,1090.000000) scale(0.100000,-0.100000)"
fill="#000000" stroke="none">
<path d="M5198 10325 c-1 -1 -48 -6 -103 -9 -138 -9 -158 -11 -370 -41 -284
-39 -752 -158 -960 -244 -11 -5 -69 -28 -130 -51 -361 -141 -741 -353 -1075
-599 -214 -157 -369 -291 -564 -487 -113 -112 -236 -245 -277 -299 -13 -16
-28 -35 -34 -41 -5 -6 -21 -25 -35 -43 -14 -18 -30 -38 -36 -44 -5 -7 -40 -52
-77 -102 -37 -49 -70 -95 -75 -100 -4 -6 -47 -69 -94 -140 -235 -359 -431
-765 -556 -1155 -50 -155 -73 -231 -77 -250 -2 -8 -11 -44 -20 -80 -20 -83
-26 -106 -46 -205 -22 -106 -51 -271 -54 -310 -4 -38 -15 -123 -20 -155 -19
-106 -28 -777 -13 -892 5 -34 3 -48 -5 -48 -8 0 -8 -3 1 -9 8 -5 13 -23 11
-42 -1 -19 2 -42 6 -51 4 -9 4 -21 2 -25 -3 -5 -2 -15 3 -23 5 -9 4 -20 -3
-29 -10 -12 -9 -13 2 -6 11 6 13 3 9 -13 -4 -12 -3 -24 1 -26 4 -3 7 -22 6
-43 0 -21 3 -40 6 -43 4 -3 8 -32 10 -65 2 -33 7 -62 11 -65 4 -3 9 -26 12
-50 3 -25 10 -59 15 -76 6 -22 5 -36 -2 -44 -9 -10 -9 -11 0 -6 8 4 14 -6 18
-31 4 -21 18 -81 32 -133 14 -52 26 -99 27 -105 2 -12 25 -83 33 -105 3 -8 8
-24 10 -35 2 -11 7 -31 13 -45 5 -14 10 -34 12 -45 2 -11 6 -22 10 -25 4 -3 9
-15 11 -25 2 -11 9 -33 16 -49 6 -16 9 -36 7 -43 -3 -8 -2 -12 3 -9 12 8 35
-50 25 -65 -4 -8 -3 -10 4 -5 7 4 13 2 13 -3 1 -6 2 -17 3 -23 1 -7 -2 -19 -7
-26 -7 -9 -6 -11 5 -7 10 4 19 -6 31 -35 9 -24 11 -37 4 -33 -6 3 -1 -8 12
-25 31 -44 73 -150 65 -164 -4 -6 -3 -8 3 -5 6 4 17 -1 24 -10 12 -14 12 -16
0 -8 -8 5 -5 -6 8 -23 12 -18 19 -32 16 -32 -4 0 3 -12 14 -26 11 -15 18 -30
15 -35 -3 -5 0 -9 5 -9 6 0 11 -6 11 -12 0 -7 9 -24 20 -38 11 -14 20 -35 20
-47 0 -13 4 -23 8 -23 13 0 63 -100 56 -112 -4 -6 -3 -8 3 -5 13 8 76 -91 69
-109 -3 -8 0 -11 10 -7 13 5 20 -13 15 -40 -1 -5 2 -6 7 -3 5 3 15 -7 23 -22
8 -14 22 -35 32 -45 11 -10 17 -27 14 -37 -3 -14 -1 -17 11 -13 11 5 14 2 9
-11 -4 -9 -3 -15 1 -12 8 5 42 -28 42 -39 0 -12 73 -105 82 -105 6 0 3 -10 -8
-22 -10 -13 -12 -17 -4 -10 19 16 27 15 34 -4 4 -10 2 -13 -6 -8 -7 4 -8 3 -4
-4 4 -7 14 -12 23 -12 10 0 13 -5 9 -17 -4 -10 -4 -14 0 -11 8 8 21 -5 54 -52
24 -34 34 -46 93 -109 15 -16 27 -32 27 -36 0 -3 20 -26 45 -51 27 -26 43 -50
39 -57 -4 -7 -4 -9 1 -5 4 4 14 3 22 -3 16 -14 18 -33 1 -23 -7 4 -8 3 -4 -4
4 -6 13 -9 21 -5 10 3 15 -1 15 -12 0 -9 5 -13 10 -10 14 9 12 -8 -2 -25 -11
-12 -10 -12 5 -1 14 11 20 11 32 1 8 -7 15 -19 15 -26 0 -8 6 -14 14 -14 14 0
31 -27 27 -43 -1 -5 3 -6 8 -3 14 9 94 -71 85 -85 -4 -7 -3 -9 3 -6 13 8 55
-22 48 -34 -4 -5 0 -9 7 -9 16 0 88 -65 88 -80 0 -5 7 -6 17 -3 10 4 14 2 10
-4 -3 -5 12 -20 33 -34 22 -13 40 -28 40 -33 0 -5 -8 -2 -17 5 -16 13 -17 12
-4 -3 7 -10 17 -15 23 -12 5 3 17 -3 26 -13 9 -10 32 -29 50 -42 18 -12 29
-27 26 -32 -3 -6 2 -9 12 -7 11 2 18 -2 17 -9 -2 -7 4 -10 12 -7 10 4 15 0 15
-11 0 -9 4 -14 8 -11 5 3 19 -5 33 -17 13 -12 36 -28 52 -36 15 -8 27 -18 27
-23 0 -4 7 -8 16 -8 10 0 14 -5 10 -16 -3 -8 -2 -13 3 -10 13 8 61 -18 61 -33
0 -8 3 -11 7 -8 3 4 20 -4 37 -16 17 -13 39 -26 49 -30 9 -3 17 -11 17 -17 0
-6 5 -8 10 -5 6 3 10 2 10 -4 0 -5 -6 -12 -12 -14 -10 -4 -10 -6 -1 -6 6 -1
15 4 18 9 4 7 14 3 25 -10 10 -12 22 -22 27 -23 4 -1 7 -6 5 -10 -1 -5 2 -6 8
-2 16 10 52 -15 46 -32 -5 -12 -3 -13 6 -6 16 13 76 -10 84 -32 4 -8 10 -13
14 -10 5 3 11 1 15 -5 4 -6 11 -8 16 -5 5 4 9 2 9 -4 0 -5 16 -15 35 -22 20
-8 34 -18 31 -25 -3 -7 3 -10 15 -7 10 3 19 0 19 -6 0 -6 5 -11 12 -11 20 0
108 -43 108 -53 0 -5 7 -4 15 3 13 11 14 10 9 -4 -4 -9 -3 -16 2 -15 20 3 26
-2 15 -14 -8 -10 -7 -14 4 -14 8 0 12 4 9 9 -9 14 15 9 56 -12 22 -11 46 -20
55 -20 8 0 15 -3 15 -7 0 -9 49 -33 67 -33 7 0 13 -4 13 -8 0 -4 8 -8 18 -9 9
-1 31 -7 47 -14 17 -7 32 -13 35 -14 3 -1 18 -7 33 -13 16 -7 33 -12 38 -12 5
0 9 -4 9 -10 0 -5 7 -7 15 -4 8 4 21 2 28 -4 6 -5 31 -16 54 -22 23 -7 40 -17
37 -21 -3 -5 1 -6 9 -3 7 2 27 -1 43 -7 16 -7 35 -13 42 -15 32 -6 43 -15 36
-26 -5 -10 -4 -10 6 -1 9 8 20 9 37 2 14 -5 28 -7 33 -4 5 3 11 1 14 -4 4 -5
24 -12 46 -16 22 -4 38 -10 35 -14 -2 -5 7 -6 20 -3 16 3 25 0 25 -9 0 -7 2
-10 5 -7 5 5 27 1 110 -18 11 -3 33 -8 49 -10 16 -3 40 -10 53 -15 15 -6 23
-5 23 2 0 8 6 7 16 -2 9 -7 23 -14 32 -14 42 -4 140 -21 145 -25 1 -1 18 -3
37 -5 59 -4 61 -5 56 -14 -3 -5 1 -11 9 -14 10 -4 12 -1 8 10 -5 12 -3 14 8 8
7 -5 30 -8 51 -6 25 2 38 -2 38 -10 0 -7 3 -9 7 -6 3 4 13 1 21 -6 13 -10 14
-9 8 1 -6 10 1 12 31 8 21 -2 51 -5 66 -5 16 -1 26 -5 23 -9 -3 -5 1 -9 9 -9
8 0 12 4 9 9 -3 4 -1 8 5 8 5 0 12 -6 14 -12 3 -8 6 -8 6 -2 1 7 18 9 49 6 26
-3 62 -5 80 -6 17 -1 32 -4 32 -8 0 -4 13 -3 29 2 16 4 32 6 34 4 5 -5 264 -5
407 -1 41 2 81 6 88 10 7 5 12 3 12 -3 0 -7 5 -8 13 -3 6 4 32 9 57 10 25 1
68 6 96 11 28 5 61 5 73 0 14 -5 20 -4 16 2 -4 7 10 9 39 7 24 -2 43 0 40 5
-3 4 3 8 13 9 10 0 25 2 33 3 12 3 83 13 150 22 8 1 28 4 44 8 17 3 36 0 43
-6 11 -8 12 -7 7 7 -6 15 -3 17 24 13 17 -2 29 -1 27 3 -3 4 6 9 20 11 15 3
25 1 25 -6 0 -6 5 -4 10 4 5 8 17 15 27 16 10 0 26 4 35 8 9 4 22 5 28 1 5 -3
10 -2 10 3 0 16 63 24 72 10 6 -10 8 -8 8 4 0 11 6 16 20 13 11 -2 20 -1 20 3
0 5 29 16 64 25 36 9 73 20 83 24 14 5 16 4 8 -8 -5 -8 -2 -7 7 3 9 10 20 17
25 16 4 -1 18 3 30 10 12 6 30 13 40 15 10 2 29 8 43 14 48 19 55 20 68 4 11
-14 11 -14 6 2 -5 13 3 21 31 33 21 8 44 13 52 10 8 -3 11 -2 8 3 -5 9 17 19
49 25 6 1 31 12 54 25 43 22 45 22 65 4 21 -17 21 -17 7 0 -12 16 -12 20 1 28
8 5 20 7 27 4 7 -3 11 -1 8 4 -7 11 74 42 87 34 6 -3 8 -2 4 3 -3 5 6 14 19
21 18 8 23 8 18 0 -3 -7 1 -4 10 7 8 10 22 16 30 13 9 -4 15 -2 13 2 -1 5 1 8
4 7 4 0 16 8 28 18 12 11 21 15 21 10 0 -5 4 -3 9 4 5 8 20 15 34 15 14 1 25
7 24 12 -1 6 6 10 15 10 9 0 20 4 25 9 5 5 2 6 -6 1 -9 -5 -12 -4 -7 3 4 7 15
12 25 12 10 0 24 7 31 15 7 8 17 15 22 15 6 0 22 8 36 18 61 42 105 65 97 51
-4 -8 4 -1 18 14 15 15 32 25 37 22 6 -3 10 -2 10 3 0 6 15 19 32 30 31 20 34
20 53 4 18 -16 19 -16 6 0 -16 21 -9 34 32 54 18 9 34 20 37 23 11 16 76 48
87 44 6 -2 14 1 18 6 4 7 -1 9 -12 5 -11 -3 -6 5 12 20 34 29 50 33 42 11 -4
-8 -2 -17 3 -20 4 -3 7 6 5 20 -2 21 7 32 41 56 24 17 48 28 53 24 5 -3 13 0
17 6 4 8 3 9 -4 5 -7 -4 -12 -2 -12 4 0 6 11 16 25 22 14 6 25 15 25 20 0 5
10 6 23 3 15 -4 18 -3 9 3 -11 7 -7 14 15 30 15 12 36 29 45 38 9 9 21 13 27
10 5 -4 13 -1 17 5 4 8 3 9 -4 5 -7 -4 -12 -3 -12 1 0 10 42 38 53 35 5 -1 6
1 3 6 -6 10 63 68 76 64 4 -1 7 2 6 7 -2 5 1 9 6 9 5 1 14 11 20 24 7 13 19
22 28 22 10 -1 14 4 11 11 -4 12 21 33 40 33 5 0 12 4 15 8 4 4 1 4 -6 0 -6
-4 -12 -3 -12 1 0 10 42 38 53 35 5 -1 6 2 3 7 -7 11 58 81 75 81 7 0 10 3 6
6 -3 3 6 18 21 33 15 15 47 50 71 78 29 32 50 49 60 46 11 -3 12 -2 4 4 -9 7
-7 15 10 33 12 14 53 63 91 110 38 47 73 84 78 82 5 -1 7 2 3 8 -8 13 20 42
30 32 5 -4 5 -2 2 4 -8 14 21 56 34 49 5 -3 6 0 4 8 -3 7 8 28 25 45 16 18 27
32 24 32 -4 0 -1 7 6 15 7 8 17 12 23 8 5 -3 7 -1 4 5 -10 15 3 42 19 42 8 0
11 6 8 15 -4 8 -1 15 5 15 6 0 11 5 11 10 0 13 39 69 60 88 13 12 13 13 0 6
-9 -4 -7 2 6 17 12 13 24 32 27 41 4 12 13 16 24 12 15 -5 16 -4 3 6 -11 9
-12 13 -2 17 6 2 10 9 6 14 -3 5 0 9 6 9 6 0 9 4 6 8 -3 5 2 18 12 28 9 10 27
41 40 67 20 44 24 47 40 35 15 -12 16 -11 4 4 -12 14 -11 22 5 50 10 18 22 36
26 39 5 3 8 9 8 13 -3 20 0 26 9 21 6 -3 7 1 4 9 -3 9 -2 16 4 16 6 0 13 14
17 30 4 18 11 27 17 24 6 -4 8 -2 5 4 -10 15 3 43 16 35 6 -3 7 -1 3 5 -4 6 9
44 28 84 19 40 42 92 52 115 10 24 22 39 28 36 6 -4 5 1 -3 10 -12 15 -9 21
11 18 4 0 5 5 2 12 -2 7 2 27 11 43 8 16 15 37 15 46 0 9 5 20 10 23 6 3 10
15 10 26 0 10 4 19 10 19 5 0 7 7 4 15 -4 8 -1 15 6 15 6 0 9 4 6 9 -7 11 16
71 27 71 4 0 6 4 2 10 -3 5 1 26 10 46 8 20 15 45 15 56 0 15 4 18 18 13 12
-4 14 -3 6 5 -14 14 4 102 19 93 6 -3 7 -1 3 5 -4 6 1 37 9 69 9 32 21 82 27
110 5 29 13 51 16 49 4 -2 7 10 8 27 0 18 11 82 23 142 12 61 24 126 27 145 3
19 7 46 10 60 4 24 14 100 19 150 2 14 4 27 5 30 1 3 1 20 0 39 -1 18 2 31 7
28 4 -3 9 29 10 72 3 133 8 206 16 218 4 6 3 15 -3 18 -8 5 -8 11 -1 19 6 7 8
15 5 18 -10 11 -9 278 1 278 6 0 4 4 -3 9 -8 4 -14 12 -14 16 0 4 6 12 14 16
7 5 8 9 3 9 -6 0 -11 19 -11 43 -1 45 -13 213 -19 262 -2 17 -7 55 -10 85 -3
30 -8 71 -11 90 -3 19 -8 49 -10 65 -2 17 -6 41 -9 55 -3 14 -8 42 -11 64 -6
44 -6 43 -28 151 -34 164 -120 476 -151 550 -7 17 -17 46 -23 65 -35 126 -263
630 -353 780 -24 40 -125 206 -154 253 -35 58 -181 260 -262 365 -179 229
-434 496 -643 672 -29 25 -58 50 -64 55 -22 21 -242 193 -290 226 -102 71
-158 109 -161 109 -1 0 -35 22 -76 48 -395 259 -923 483 -1434 611 -95 23
-361 77 -425 85 -163 21 -212 27 -270 32 -36 3 -78 8 -95 10 -35 6 -621 14
-627 9z m-3234 -8183 c3 -5 -1 -9 -9 -9 -8 0 -12 4 -9 9 3 4 7 8 9 8 2 0 6 -4
9 -8z m759 -437 c-3 -9 -8 -14 -10 -11 -3 3 -2 9 2 15 9 16 15 13 8 -4z m1007
-685 c0 -5 -2 -10 -4 -10 -3 0 -8 5 -11 10 -3 6 -1 10 4 10 6 0 11 -4 11 -10z"/>
<path d="M1456 2607 c3 -10 9 -15 12 -12 3 3 0 11 -7 18 -10 9 -11 8 -5 -6z"/>
<path d="M1493 2545 c0 -8 4 -12 9 -9 5 3 6 10 3 15 -9 13 -12 11 -12 -6z"/>
<path d="M9235 2349 c-4 -6 -5 -12 -2 -15 2 -3 7 2 10 11 7 17 1 20 -8 4z"/>
<path d="M1733 2215 c0 -8 4 -12 9 -9 5 3 6 10 3 15 -9 13 -12 11 -12 -6z"/>
<path d="M9056 2142 c-3 -5 1 -9 9 -9 8 0 12 4 9 9 -3 4 -7 8 -9 8 -2 0 -6 -4
-9 -8z"/>
<path d="M8965 2040 c-3 -6 1 -7 9 -4 18 7 21 14 7 14 -6 0 -13 -4 -16 -10z"/>
<path d="M8690 1766 c0 -2 7 -7 16 -10 8 -3 12 -2 9 4 -6 10 -25 14 -25 6z"/>
<path d="M2253 1725 c0 -8 4 -12 9 -9 5 3 6 10 3 15 -9 13 -12 11 -12 -6z"/>
<path d="M8480 1600 c-8 -5 -10 -10 -5 -10 6 0 17 5 25 10 8 5 11 10 5 10 -5
0 -17 -5 -25 -10z"/>
<path d="M8255 1420 c3 -5 8 -10 11 -10 2 0 4 5 4 10 0 6 -5 10 -11 10 -5 0
-7 -4 -4 -10z"/>
<path d="M2716 1338 c3 -5 10 -6 15 -3 13 9 11 12 -6 12 -8 0 -12 -4 -9 -9z"/>
<path d="M7806 1138 c3 -5 10 -6 15 -3 13 9 11 12 -6 12 -8 0 -12 -4 -9 -9z"/>
<path d="M7636 1062 c-3 -5 1 -9 9 -9 8 0 12 4 9 9 -3 4 -7 8 -9 8 -2 0 -6 -4
-9 -8z"/>
<path d="M7536 982 c-3 -5 1 -9 9 -9 8 0 12 4 9 9 -3 4 -7 8 -9 8 -2 0 -6 -4
-9 -8z"/>
<path d="M3473 945 c0 -8 4 -12 9 -9 5 3 6 10 3 15 -9 13 -12 11 -12 -6z"/>
<path d="M3510 941 c0 -6 4 -13 10 -16 6 -3 7 1 4 9 -7 18 -14 21 -14 7z"/>
<path d="M3615 880 c-3 -5 -1 -10 4 -10 6 0 11 5 11 10 0 6 -2 10 -4 10 -3 0
-8 -4 -11 -10z"/>
<path d="M3710 866 c0 -2 7 -7 16 -10 8 -3 12 -2 9 4 -6 10 -25 14 -25 6z"/>
<path d="M3776 818 c3 -5 10 -6 15 -3 13 9 11 12 -6 12 -8 0 -12 -4 -9 -9z"/>
<path d="M7054 822 c4 -3 14 -7 22 -8 9 -1 13 0 10 4 -4 3 -14 7 -22 8 -9 1
-13 0 -10 -4z"/>
<path d="M3910 801 c0 -6 4 -13 10 -16 6 -3 7 1 4 9 -7 18 -14 21 -14 7z"/>
<path d="M3973 765 c0 -8 4 -12 9 -9 5 3 6 10 3 15 -9 13 -12 11 -12 -6z"/>
<path d="M4147 719 c7 -7 15 -10 18 -7 3 3 -2 9 -12 12 -14 6 -15 5 -6 -5z"/>
<path d="M6655 691 c-3 -5 -2 -12 3 -15 5 -3 9 1 9 9 0 17 -3 19 -12 6z"/>
<path d="M4205 680 c-3 -6 1 -7 9 -4 18 7 21 14 7 14 -6 0 -13 -4 -16 -10z"/>
<path d="M6615 661 c-3 -5 -2 -12 3 -15 5 -3 9 1 9 9 0 17 -3 19 -12 6z"/>
<path d="M4365 640 c-3 -6 1 -7 9 -4 18 7 21 14 7 14 -6 0 -13 -4 -16 -10z"/>
<path d="M4585 619 c-3 -4 2 -6 10 -5 21 3 28 13 10 13 -9 0 -18 -4 -20 -8z"/>
<path d="M6340 626 c0 -2 8 -10 18 -17 15 -13 16 -12 3 4 -13 16 -21 21 -21
13z"/>
<path d="M6376 618 c3 -5 10 -6 15 -3 13 9 11 12 -6 12 -8 0 -12 -4 -9 -9z"/>
<path d="M6233 605 c0 -8 4 -12 9 -9 5 3 6 10 3 15 -9 13 -12 11 -12 -6z"/>
<path d="M4680 600 c-9 -6 -10 -10 -3 -10 6 0 15 5 18 10 8 12 4 12 -15 0z"/>
<path d="M4710 606 c0 -2 7 -7 16 -10 8 -3 12 -2 9 4 -6 10 -25 14 -25 6z"/>
<path d="M5950 578 c0 -4 4 -8 9 -8 6 0 12 4 15 8 3 5 -1 9 -9 9 -8 0 -15 -4
-15 -9z"/>
<path d="M5990 579 c0 -5 5 -7 10 -4 6 3 10 8 10 11 0 2 -4 4 -10 4 -5 0 -10
-5 -10 -11z"/>
<path d="M5150 561 c0 -6 4 -13 10 -16 6 -3 7 1 4 9 -7 18 -14 21 -14 7z"/>
<path d="M5313 545 c0 -8 4 -12 9 -9 5 3 6 10 3 15 -9 13 -12 11 -12 -6z"/>
<path d="M5514 546 c1 -8 5 -18 8 -22 4 -3 5 1 4 10 -1 8 -5 18 -8 22 -4 3 -5
-1 -4 -10z"/>
<path d="M5549 543 c-13 -16 -12 -17 4 -4 16 13 21 21 13 21 -2 0 -10 -8 -17
-17z"/>
<path d="M5619 548 c15 -21 31 -23 31 -6 0 6 -3 8 -7 5 -3 -4 -13 -1 -22 6
-14 11 -14 10 -2 -5z"/>
<path d="M5775 549 c-4 -6 -5 -12 -2 -15 2 -3 7 2 10 11 7 17 1 20 -8 4z"/>
<path d="M5187 539 c7 -7 15 -10 18 -7 3 3 -2 9 -12 12 -14 6 -15 5 -6 -5z"/>
<path d="M5667 539 c7 -7 15 -10 18 -7 3 3 -2 9 -12 12 -14 6 -15 5 -6 -5z"/>
<path d="M5440 520 c-8 -5 -10 -10 -5 -10 6 0 17 5 25 10 8 5 11 10 5 10 -5 0
-17 -5 -25 -10z"/>
<path d="M5316 498 c3 -5 10 -6 15 -3 13 9 11 12 -6 12 -8 0 -12 -4 -9 -9z"/>
</g>
</svg>
